<?xml version="1.0" encoding="iso-8859-1"?>
<!-- Uploaded to: SVG Repo, www.svgrepo.com, Generator: SVG Repo Mixer Tools -->
<svg height="800px" width="800px" version="1.1" id="Layer_1" xmlns="http://www.w3.org/2000/svg" xmlns:xlink="http://www.w3.org/1999/xlink" 
	 viewBox="0 0 147.031 147.031" xml:space="preserve">
<g>
	<g>
		<g>
			<path style="fill:#009658;" d="M74.746,94.007c0,0-15.644-7.522-15.246-6.824c0.398,0.695,1.981-4.431,1.981-4.431
				c0.705-1.577,2.577-2.286,4.151-1.582l9.512,4.258c1.578,0.707,2.291,2.576,1.584,4.155L74.746,94.007z"/>
		</g>
		<g>
			<path style="fill:#414042;" d="M106.699,26.701c-0.583,1.308-2.135,1.896-3.442,1.311L89.761,21.97
				c-1.304-0.587-1.897-2.135-1.312-3.443L96.783,0l18.253,8.177L106.699,26.701z"/>
		</g>
		<g>
			<path style="fill:#FFCC3B;" d="M89.87,78.407c-0.707,1.578-2.577,2.29-4.152,1.584L62.652,69.663
				c-1.578-0.706-2.289-2.577-1.584-4.153L83.54,15.345c0.706-1.577,2.574-2.289,4.152-1.583l23.062,10.327
				c1.578,0.706,2.291,2.575,1.584,4.153L89.87,78.407z"/>
		</g>
		<g>
			<path style="fill:#414042;" d="M84.556,90.267c-0.705,1.578-2.575,2.293-4.15,1.584l-23.064-10.33
				c-1.575-0.705-2.289-2.576-1.584-4.152l5.513-11.958L90.068,78.31L84.556,90.267z"/>
		</g>
		<path style="fill:#414042;" d="M124.459,84.146c0-27.454-34.08-35.533-34.08-35.533c-1.577-0.708-2.869,0.129-2.869,1.857v6.709
			c0,1.73,1.289,3.726,2.862,4.438c0,0,21.092,6.039,21.092,22.684c0,16.643-15.835,30.26-26.796,30.26c-6.06,0-45.972,0-45.972,0
			v13.617c0,0,29.209,0,45.953,0C103.222,128.177,124.459,111.603,124.459,84.146z"/>
		<path style="fill:#414042;" d="M106.363,143.887c0,1.729-1.413,3.144-3.141,3.144H22.571v-7.335h80.651
			c1.728,0,3.141,1.415,3.141,3.144V143.887z"/>
		<circle style="fill:#009658;" cx="92.053" cy="52.806" r="14.328"/>
		<circle style="fill:#414042;" cx="92.052" cy="52.806" r="10.009"/>
		<path style="fill:#FFCC3B;" d="M110.495,147.03c-2.655,0-48.141,0-48.141,0v-32.48h23.948l24.755,30.689
			C111.057,145.24,112.634,147.03,110.495,147.03z"/>
	</g>
	<circle style="fill:#009658;" cx="92.052" cy="52.806" r="5.225"/>
	<circle style="fill:#403833;" cx="71.12" cy="122.331" r="3.115"/>
	<circle style="fill:#403833;" cx="69.836" cy="142.814" r="3.115"/>
</g>
</svg>